<?xml version="1.0" encoding="UTF-8" standalone="no" ?>
<!DOCTYPE svg PUBLIC "-//W3C//DTD SVG 1.1//EN" "http://www.w3.org/Graphics/SVG/1.1/DTD/svg11.dtd">
<svg xmlns="http://www.w3.org/2000/svg" xmlns:xlink="http://www.w3.org/1999/xlink" version="1.1" width="42" height="42" viewBox="0 0 42 42" xml:space="preserve">
  <desc>Created with Fabric.js 5.3.0</desc>
  <defs></defs>
  <g transform="matrix(0.0816834968 0 0 0.0816834968 20.9837553897 20.9837553897)" id="C7aZNYCTbdW7Ga0sEebhT">
    <g style="">
      <g transform="matrix(1 0 0 1 -34.91 -34.91)" id="1ncQs_RPkFXNfMEQFf2i1">
        <path style="stroke: #ffd96d; stroke-width: 32; stroke-dasharray: none; stroke-linecap: butt; stroke-dashoffset: 0; stroke-linejoin: miter; stroke-miterlimit: 10; fill: #423B2D; fill-rule: nonzero; opacity: 1;" transform=" translate(-221.09, -221.09)" d="M 221.09 64 C 134.33158864908066 64 64 134.33158864908066 64 221.09 C 64 307.8484113509194 134.33158864908066 378.18 221.09 378.18 C 307.8484113509194 378.18 378.18 307.8484113509194 378.18 221.09 C 378.1744778253937 134.3338761116471 307.84612388835285 64.00552217460628 221.08999999999995 64.00000000000003 z" stroke-linecap="round" />
      </g>
      <g transform="matrix(1 0 0 1 137.145 137.145)" id="7cckzIx2G-S3TxAN7oAvx">
        <path style="stroke: #ffd96d; stroke-width: 32; stroke-dasharray: none; stroke-linecap: round; stroke-dashoffset: 0; stroke-linejoin: miter; stroke-miterlimit: 10; fill: #423B2D; fill-rule: nonzero; opacity: 1;" transform=" translate(-393.145, -393.145)" d="M 338.29 338.29 L 448 448" stroke-linecap="round" />
      </g>
    </g>
  </g>
  <g transform="matrix(0.0403580911 0 0 0.0403580911 18.2911983006 17.4916679133)" id="oPd7zy6KQ3svXsvHG_QzE">
    <g style="">
      <g transform="matrix(1 0 0 1 0 32)" id="IQCuIWVOBHzOWydhC2Ylq">
        <path style="stroke: #ffd96d; stroke-width: 32; stroke-dasharray: none; stroke-linecap: round; stroke-dashoffset: 0; stroke-linejoin: round; stroke-miterlimit: 4; fill: #423B2D; fill-rule: nonzero; opacity: 1;" transform=" translate(-256, -288)" d="M 370 378 C 398.89 401.52 416 424.07 416 464 M 142 378 C 113.11 401.52 96 424.06 96 464 M 384 208 C 412.89 184.48 416 151.93 416 112 M 128 206 C 99.11 182.48 96 151.94 96 112 M 464 288.13 L 384 288.13 M 128 288.13 L 48 288.13 M 256 192 L 256 448" stroke-linecap="round" />
      </g>
      <g transform="matrix(1 0 0 1 0 31.965)" id="NtSsq0Tdy7AykXdBT6CYL">
        <path style="stroke: #ffd96d; stroke-width: 32; stroke-dasharray: none; stroke-linecap: round; stroke-dashoffset: 0; stroke-linejoin: round; stroke-miterlimit: 4; fill: #423B2D; fill-rule: nonzero; opacity: 1;" transform=" translate(-256, -287.965)" d="M 256 448 L 256 448 C 185.6 448 128 390.4 128 320 L 128 223.93 C 128 158.86 185.6 127.93 256 127.93 L 256 127.93 C 326.4 127.93 384 153.53 384 223.93 L 384 320 C 384 390.4 326.4 448 256 448 z" stroke-linecap="round" />
      </g>
      <g transform="matrix(1 0 0 1 0 -160.24)" id="Y7FX8xzu4pG-F_Mh7itCn">
        <path style="stroke: #ffd96d; stroke-width: 32; stroke-dasharray: none; stroke-linecap: round; stroke-dashoffset: 0; stroke-linejoin: round; stroke-miterlimit: 4; fill: #423B2D; fill-rule: nonzero; opacity: 1;" transform=" translate(-256, -95.76)" d="M 179.43 143.52 C 177.42861788796085 138.50121243071766 176.26969598387242 133.18638982100595 176 127.79000000000002 C 176.11539877776835 83.77108815757936 211.7710881575793 48.11539877776836 255.78999999999996 47.999999999999986 L 256.21 48 C 300.22891184242064 48.11539877776832 335.8846012222316 83.7710881575793 336 127.78999999999996 C 335.80683587122115 132.70277428330152 334.7507340482632 137.54324097185872 332.88 142.09" stroke-linecap="round" />
      </g>
    </g>
  </g>
</svg>
